<svg width="57" height="50" viewBox="0 0 57 50" fill="none" xmlns="http://www.w3.org/2000/svg">
<path fill-rule="evenodd" clip-rule="evenodd" d="M-2.9216e-07 25C-3.03227e-07 25.9281 0.375292 26.8182 1.04332 27.4744C1.71134 28.1307 2.61737 28.4994 3.5621 28.4994L44.8326 28.4994L29.5369 43.5187C29.2058 43.844 28.943 44.2303 28.7638 44.6554C28.5846 45.0805 28.4923 45.5361 28.4923 45.9962C28.4923 46.4563 28.5846 46.912 28.7638 47.3371C28.943 47.7622 29.2058 48.1484 29.5369 48.4738C29.8681 48.7991 30.2613 49.0572 30.694 49.2333C31.1268 49.4094 31.5905 49.5 32.0589 49.5C32.5273 49.5 32.9911 49.4094 33.4238 49.2333C33.8565 49.0572 34.2497 48.7991 34.5809 48.4738L55.9535 27.4776C56.2852 27.1525 56.5484 26.7663 56.728 26.3412C56.9076 25.9161 57 25.4603 57 25C57 24.5397 56.9076 24.0839 56.728 23.6588C56.5484 23.2337 56.2852 22.8475 55.9535 22.5224L34.5809 1.52624C34.2497 1.20088 33.8565 0.942793 33.4238 0.766711C32.9911 0.590629 32.5273 0.5 32.0589 0.5C31.5905 0.5 31.1268 0.590629 30.694 0.766711C30.2613 0.942793 29.8681 1.20088 29.5369 1.52624C28.8681 2.18332 28.4923 3.07453 28.4923 4.00379C28.4923 4.46391 28.5846 4.91953 28.7638 5.34463C28.943 5.76973 29.2058 6.15599 29.5369 6.48134L44.8326 21.5006L3.5621 21.5006C2.61737 21.5006 1.71134 21.8693 1.04332 22.5256C0.375292 23.1818 -2.81092e-07 24.0719 -2.9216e-07 25Z" fill="currentColor"/>
</svg>
