<svg width="57" height="50" viewBox="0 0 57 50" fill="none" xmlns="http://www.w3.org/2000/svg">
<path fill-rule="evenodd" clip-rule="evenodd" d="M57 24.9999C57 25.9252 56.6247 26.8127 55.9567 27.4671C55.2887 28.1214 54.3826 28.489 53.4379 28.489L12.1674 28.489L27.4631 43.4645C27.7942 43.7889 28.057 44.1741 28.2362 44.5979C28.4154 45.0218 28.5077 45.4761 28.5077 45.9349C28.5077 46.3936 28.4154 46.8479 28.2362 47.2718C28.057 47.6957 27.7942 48.0808 27.4631 48.4052C27.1319 48.7296 26.7387 48.9869 26.306 49.1625C25.8732 49.3381 25.4095 49.4284 24.9411 49.4284C24.4727 49.4284 24.0089 49.3381 23.5762 49.1625C23.1435 48.9869 22.7503 48.7296 22.4191 48.4052L1.0465 27.4702C0.714775 27.1461 0.451588 26.761 0.272011 26.3371C0.092438 25.9132 2.96781e-07 25.4588 2.91308e-07 24.9999C2.85835e-07 24.5409 0.092438 24.0865 0.272011 23.6626C0.451588 23.2387 0.714775 22.8536 1.0465 22.5295L22.4191 1.59453C22.7503 1.27013 23.1435 1.01279 23.5762 0.837222C24.0089 0.661654 24.4727 0.571289 24.9411 0.571289C25.4095 0.571289 25.8732 0.661654 26.306 0.837222C26.7387 1.01279 27.1319 1.27013 27.4631 1.59453C28.1319 2.24971 28.5077 3.13831 28.5077 4.06486C28.5077 4.52365 28.4154 4.97794 28.2362 5.4018C28.057 5.82566 27.7942 6.21079 27.4631 6.53519L12.1674 21.5107L53.4379 21.5107C54.3826 21.5107 55.2887 21.8783 55.9567 22.5326C56.6247 23.187 57 24.0745 57 24.9999Z" fill="currentColor"/>
</svg>
