<svg width="14" height="13" viewBox="0 0 14 13" fill="none" xmlns="http://www.w3.org/2000/svg">
<path d="M6.27863 12.072C6.21463 12.136 6.15063 12.168 6.08663 12.168C6.05463 12.168 5.99063 12.136 5.89463 12.072L0.974625 7.128C0.798625 6.952 0.710625 6.76 0.710625 6.552C0.710625 6.344 0.798625 6.152 0.974625 5.976L5.89463 1.032C5.95863 0.967999 6.02263 0.935999 6.08663 0.935999C6.16663 0.935999 6.23063 0.967999 6.27863 1.032L7.47863 2.256C7.55863 2.304 7.59863 2.368 7.59863 2.448C7.59863 2.496 7.55863 2.56 7.47863 2.64L4.67063 5.424H13.1906C13.3506 5.424 13.4306 5.504 13.4306 5.664V7.44C13.4306 7.6 13.3506 7.68 13.1906 7.68H4.67063L7.47863 10.464C7.55863 10.544 7.59863 10.608 7.59863 10.656C7.59863 10.704 7.55863 10.768 7.47863 10.848L6.27863 12.072Z" fill="currentColor"/>
</svg>
