<svg width="140" height="140" viewBox="0 0 140 140" fill="none" xmlns="http://www.w3.org/2000/svg">
<path d="M36.6538 56.5835H68.3205" stroke="#009875" stroke-width="1.5" stroke-miterlimit="10" stroke-linecap="round" stroke-linejoin="round"/>
<path d="M49.9871 87.25H56.6537" stroke="#009875" stroke-width="1.5" stroke-miterlimit="10" stroke-linecap="round" stroke-linejoin="round"/>
<path d="M64.9871 87.25H78.3204" stroke="#009875" stroke-width="1.5" stroke-miterlimit="10" stroke-linecap="round" stroke-linejoin="round"/>
<path d="M103.32 70.1148V85.7548C103.32 99.2098 100.354 102.583 88.5205 102.583H51.4538C39.6205 102.583 36.6538 99.2098 36.6538 85.7548V54.2448C36.6538 40.7898 39.6205 37.4165 51.4538 37.4165H78.3205" stroke="#009875" stroke-width="1.5" stroke-linecap="round" stroke-linejoin="round"/>
<path d="M93.5871 39.8315L81.2205 54.0532C80.7538 54.5899 80.2871 55.6632 80.1871 56.4299L79.5205 61.8732C79.2871 63.8282 80.4871 65.2082 82.1871 64.9399L86.9205 64.1732C87.5871 64.0582 88.5205 63.5215 88.9871 62.9849L101.354 48.7632C103.487 46.3099 104.487 43.4732 101.354 39.8699C98.1871 36.2282 95.7205 37.3782 93.5871 39.8315Z" stroke="#009875" stroke-width="1.5" stroke-miterlimit="10" stroke-linecap="round" stroke-linejoin="round"/>
<path d="M91.8203 41.8633C92.887 46.1949 95.8203 49.5683 99.5536 50.7566" stroke="#009875" stroke-width="1.5" stroke-miterlimit="10" stroke-linecap="round" stroke-linejoin="round"/>
<mask id="path-8-inside-1_346_2996" fill="white">
<path fill-rule="evenodd" clip-rule="evenodd" d="M132.99 100.568C137.481 91.3322 140 80.9603 140 70C140 31.3401 108.66 0 70 0C31.3401 0 0 31.3401 0 70C0 108.66 31.3401 140 70 140C83.6838 140 96.4506 136.074 107.235 129.286C106.435 127.006 106 124.554 106 122C106 109.85 115.85 100 128 100C129.717 100 131.387 100.197 132.99 100.568Z"/>
</mask>
<path d="M132.99 100.568L132.539 102.517L134.092 102.877L134.789 101.443L132.99 100.568ZM107.235 129.286L108.301 130.979L109.65 130.129L109.122 128.624L107.235 129.286ZM138 70C138 80.6507 135.553 90.7243 131.192 99.694L134.789 101.443C139.409 91.9401 142 81.2698 142 70H138ZM70 2C107.555 2 138 32.4446 138 70H142C142 30.2355 109.765 -2 70 -2V2ZM2 70C2 32.4446 32.4446 2 70 2V-2C30.2355 -2 -2 30.2355 -2 70H2ZM70 138C32.4446 138 2 107.555 2 70H-2C-2 109.765 30.2355 142 70 142V138ZM106.17 127.593C95.695 134.186 83.2959 138 70 138V142C84.0717 142 97.2063 137.961 108.301 130.979L106.17 127.593ZM109.122 128.624C108.396 126.553 108 124.325 108 122H104C104 124.782 104.474 127.458 105.348 129.948L109.122 128.624ZM108 122C108 110.954 116.954 102 128 102V98C114.745 98 104 108.745 104 122H108ZM128 102C129.563 102 131.082 102.179 132.539 102.517L133.442 98.6202C131.692 98.2142 129.87 98 128 98V102Z" fill="#009875" mask="url(#path-8-inside-1_346_2996)"/>
</svg>
