<svg width="140" height="140" viewBox="0 0 140 140" fill="none" xmlns="http://www.w3.org/2000/svg">
<mask id="path-1-inside-1_346_3004" fill="white">
<path fill-rule="evenodd" clip-rule="evenodd" d="M132.99 100.568C137.481 91.3322 140 80.9603 140 70C140 31.3401 108.66 0 70 0C31.3401 0 0 31.3401 0 70C0 108.66 31.3401 140 70 140C83.6838 140 96.4506 136.074 107.235 129.286C106.435 127.006 106 124.554 106 122C106 109.85 115.85 100 128 100C129.717 100 131.387 100.197 132.99 100.568Z"/>
</mask>
<path d="M132.99 100.568L132.539 102.517L134.092 102.877L134.789 101.443L132.99 100.568ZM107.235 129.286L108.3 130.979L109.65 130.129L109.122 128.624L107.235 129.286ZM138 70C138 80.6507 135.553 90.7242 131.192 99.694L134.789 101.443C139.409 91.9401 142 81.2698 142 70H138ZM70 2C107.555 2 138 32.4446 138 70H142C142 30.2355 109.765 -2 70 -2V2ZM2 70C2 32.4446 32.4446 2 70 2V-2C30.2355 -2 -2 30.2355 -2 70H2ZM70 138C32.4446 138 2 107.555 2 70H-2C-2 109.765 30.2355 142 70 142V138ZM106.17 127.593C95.695 134.186 83.2959 138 70 138V142C84.0717 142 97.2063 137.961 108.3 130.979L106.17 127.593ZM109.122 128.624C108.396 126.553 108 124.325 108 122H104C104 124.782 104.474 127.458 105.348 129.948L109.122 128.624ZM108 122C108 110.954 116.954 102 128 102V98C114.745 98 104 108.745 104 122H108ZM128 102C129.563 102 131.082 102.179 132.539 102.517L133.442 98.6202C131.692 98.2142 129.87 98 128 98V102Z" fill="#009875" mask="url(#path-1-inside-1_346_3004)"/>
<g clip-path="url(#clip0_346_3004)">
<path d="M109.678 57.5458C109.249 57.1164 108.553 57.1164 108.123 57.5458L101.277 64.3925C101.099 64.5707 100.987 64.8047 100.961 65.0555C100.416 70.2707 98.0741 75.1849 94.3662 78.8926L92.7392 80.5196L80.9175 68.6979C81.6653 68.8744 82.3972 68.9637 83.1079 68.9637C84.1504 68.9637 85.1481 68.7731 86.0853 68.3896C86.6473 68.1598 86.9163 67.5179 86.6865 66.9561C86.4567 66.394 85.8146 66.1253 85.253 66.3549C80.7264 68.2068 75.5079 63.2781 74.8505 62.6309L71.7094 59.4898C72.0994 57.836 71.7627 56.061 70.7599 54.6191C69.6262 52.9893 67.8239 52.0546 65.8074 52.0546L58.1992 52.1091C58.1924 52.1091 58.1857 52.1091 58.1791 52.1091C57.4507 52.1091 56.7659 51.8268 56.2486 51.3131C55.7265 50.7946 55.4391 50.1038 55.4392 49.3677V49.2532C55.4396 47.7765 56.5959 46.574 58.0717 46.5158L71.9269 45.9699C76.9271 45.7731 81.9112 47.2916 85.9534 50.2457C86.3911 50.5653 86.9961 50.5186 87.3791 50.1355L94.656 42.8586C95.0854 42.4294 95.0854 41.7333 94.6562 41.3042C94.2268 40.8748 93.531 40.8748 93.1016 41.3042L86.4773 47.9286C82.1824 45.0405 77.0212 43.5695 71.8403 43.7732L57.9851 44.3191C57.9525 44.3205 57.9205 44.3233 57.8882 44.3254L52.6313 39.0686C52.2021 38.6392 51.506 38.6392 51.0769 39.0686C50.6475 39.4978 50.6475 40.1938 51.0769 40.623L55.5331 45.0792C54.1502 45.9542 53.2414 47.4956 53.2409 49.2531V49.3676C53.2405 50.6937 53.7587 51.9386 54.6994 52.8731C55.6403 53.8076 56.8878 54.3171 58.2149 54.3074L65.8151 54.253C67.5659 54.253 68.5338 55.2688 68.9549 55.8743C69.2757 56.3355 69.4906 56.8479 69.5953 57.3758L69.2185 56.9991C68.7893 56.5697 68.0933 56.5697 67.6641 56.9991C67.2348 57.4282 67.2348 58.1243 67.6641 58.5535L92.466 83.3553C93.5371 84.4262 93.5371 86.169 92.466 87.24C91.3955 88.3106 89.6538 88.3107 88.583 87.2413L72.7853 71.4438C72.3563 71.0144 71.6601 71.0144 71.231 71.4438C70.8017 71.873 70.8017 72.569 71.231 72.9982L88.2466 90.014C89.3177 91.0849 89.3177 92.8277 88.2466 93.8986C87.728 94.4174 87.0382 94.7032 86.3043 94.7032C85.5706 94.7032 84.8808 94.4174 84.3621 93.8986L68.2318 77.7683C67.8024 77.3391 67.1066 77.3391 66.6774 77.7683C66.2482 78.1975 66.248 78.8935 66.6774 79.3227L79.8948 92.5402C80.9648 93.6113 80.9645 95.3531 79.8939 96.4237C78.8226 97.4948 77.08 97.4946 76.0091 96.4237L61.6542 82.0688C61.225 81.6394 60.5289 81.6394 60.0997 82.0688C59.6704 82.498 59.6704 83.194 60.0997 83.6232L70.7477 94.2712L70.7479 94.2713C71.819 95.3423 71.819 97.0849 70.7479 98.156C69.6771 99.2269 67.9343 99.2269 66.8634 98.156L47.5992 78.8926C43.8914 75.1849 41.5494 70.2707 41.0045 65.0555C40.9783 64.8047 40.8668 64.5707 40.6884 64.3925L31.8764 55.5803C31.4472 55.1509 30.7512 55.1509 30.322 55.5803C29.8927 56.0095 29.8927 56.7055 30.322 57.1347L38.8621 65.6748C39.5331 71.2441 42.0744 76.4765 46.0448 80.4469L47.6659 82.0679C47.0623 82.9035 46.7358 83.9037 46.7358 84.9547C46.7358 86.2756 47.2502 87.5175 48.1842 88.4514C49.1482 89.4155 50.4145 89.8976 51.6809 89.8976C51.8055 89.8976 51.93 89.8915 52.0543 89.8822C52.0118 90.1447 51.989 90.4122 51.989 90.6833C51.989 92.0041 52.5034 93.246 53.4374 94.18C54.4014 95.1441 55.6677 95.6262 56.9341 95.6262C57.1805 95.6262 57.4269 95.6074 57.6711 95.5709C57.447 97.07 57.9102 98.653 59.0618 99.8046C59.9957 100.739 61.2377 101.253 62.5585 101.253C63.7358 101.253 64.8497 100.843 65.7395 100.093C66.6348 100.802 67.7198 101.157 68.8056 101.157C70.0718 101.157 71.3384 100.675 72.3025 99.7111C73.0207 98.9929 73.4708 98.1068 73.654 97.1781L74.4543 97.9784C75.4186 98.9427 76.6846 99.4246 77.9512 99.4246C79.2175 99.4246 80.4842 98.9425 81.4483 97.9784C82.1665 97.2602 82.6167 96.3743 82.7998 95.4456L82.8074 95.4532C83.7414 96.3872 84.9833 96.9016 86.3043 96.9016C87.6255 96.9016 88.8673 96.3872 89.8014 95.4532C91.2132 94.0413 91.5898 91.9815 90.934 90.2225C92.0603 90.1295 93.1608 89.6543 94.0205 88.7944C95.8567 86.9582 95.9429 84.0265 94.282 82.0857L95.9206 80.4469C99.891 76.4765 102.432 71.2439 103.103 65.6746L109.678 59.1C110.107 58.6708 110.107 57.975 109.678 57.5458ZM49.7387 86.897C49.2199 86.3782 48.9341 85.6884 48.9341 84.9547C48.9341 84.4952 49.0463 84.0532 49.2573 83.6594L52.9762 87.3783C52.5826 87.5893 52.1404 87.7015 51.6809 87.7015C50.9473 87.7018 50.2575 87.416 49.7387 86.897ZM54.992 92.6258C54.4731 92.107 54.1874 91.4172 54.1874 90.6834C54.1874 90.1063 54.3664 89.5579 54.6945 89.0969L58.5203 92.9227C57.4487 93.6823 55.9515 93.5851 54.992 92.6258ZM60.6164 98.2502C59.6569 97.2907 59.5598 95.7936 60.3194 94.7218L64.1452 98.5476C63.6843 98.8755 63.1357 99.0548 62.5585 99.0548C61.825 99.0548 61.1352 98.769 60.6164 98.2502Z" fill="#009875"/>
</g>
<defs>
<clipPath id="clip0_346_3004">
<rect width="80" height="80" fill="white" transform="translate(30 30)"/>
</clipPath>
</defs>
</svg>
