<svg width="140" height="140" viewBox="0 0 140 140" fill="none" xmlns="http://www.w3.org/2000/svg">
<path d="M65.8387 86.2012V92.9679C65.8387 98.7013 60.5053 103.335 53.9386 103.335C47.372 103.335 42.0052 98.7013 42.0052 92.9679V86.2012C42.0052 91.9345 47.3386 96.0012 53.9386 96.0012C60.5053 96.0012 65.8387 91.9012 65.8387 86.2012Z" stroke="#009875" stroke-width="1.5" stroke-linecap="round" stroke-linejoin="round"/>
<path d="M65.8334 77.0334C65.8334 78.7001 65.3667 80.2334 64.5667 81.5667C62.6 84.8001 58.5666 86.8335 53.9 86.8335C49.2333 86.8335 45.1999 84.7667 43.2333 81.5667C42.4333 80.2334 41.9668 78.7001 41.9668 77.0334C41.9668 74.1668 43.3001 71.6001 45.4334 69.7334C47.6001 67.8334 50.5666 66.7002 53.8666 66.7002C57.1666 66.7002 60.1334 67.8668 62.3 69.7334C64.5 71.5668 65.8334 74.1668 65.8334 77.0334Z" stroke="#009875" stroke-width="1.5" stroke-linecap="round" stroke-linejoin="round"/>
<path d="M65.8387 77.0331V86.1998C65.8387 91.9331 60.5053 95.9998 53.9386 95.9998C47.372 95.9998 42.0052 91.8998 42.0052 86.1998V77.0331C42.0052 71.2998 47.3386 66.6665 53.9386 66.6665C57.2386 66.6665 60.2054 67.8331 62.3721 69.6997C64.5054 71.5664 65.8387 74.1665 65.8387 77.0331Z" stroke="#009875" stroke-width="1.5" stroke-linecap="round" stroke-linejoin="round"/>
<path d="M103.333 66.5664V73.4332C103.333 75.2666 101.867 76.7664 100 76.8331H93.4667C89.8667 76.8331 86.5667 74.1998 86.2667 70.5998C86.0667 68.4998 86.8667 66.5331 88.2667 65.1664C89.5 63.8998 91.2 63.1665 93.0667 63.1665H100C101.867 63.2332 103.333 64.733 103.333 66.5664Z" stroke="#009875" stroke-width="1.5" stroke-linecap="round" stroke-linejoin="round"/>
<path d="M36.6666 64.9998V58.3332C36.6666 49.2665 42.1333 42.9332 50.6333 41.8665C51.5 41.7332 52.4 41.6665 53.3333 41.6665H83.3333C84.2 41.6665 85.0333 41.6998 85.8333 41.8331C94.4333 42.8331 100 49.1998 100 58.3332V63.1665H93.0666C91.1999 63.1665 89.4999 63.8998 88.2666 65.1665C86.8666 66.5331 86.0666 68.4998 86.2666 70.5998C86.5666 74.1998 89.8666 76.8331 93.4666 76.8331H100V81.6665C100 91.6665 93.3333 98.3332 83.3333 98.3332H75" stroke="#009875" stroke-width="1.5" stroke-linecap="round" stroke-linejoin="round"/>
<mask id="path-6-inside-1_346_3013" fill="white">
<path fill-rule="evenodd" clip-rule="evenodd" d="M132.99 100.568C137.481 91.3322 140 80.9603 140 70C140 31.3401 108.66 0 70 0C31.3401 0 0 31.3401 0 70C0 108.66 31.3401 140 70 140C83.6838 140 96.4506 136.074 107.235 129.286C106.435 127.006 106 124.554 106 122C106 109.85 115.85 100 128 100C129.717 100 131.387 100.197 132.99 100.568Z"/>
</mask>
<path d="M132.99 100.568L132.539 102.517L134.092 102.877L134.789 101.443L132.99 100.568ZM107.235 129.286L108.301 130.979L109.65 130.129L109.122 128.624L107.235 129.286ZM138 70C138 80.6507 135.553 90.7243 131.192 99.694L134.789 101.443C139.409 91.9401 142 81.2698 142 70H138ZM70 2C107.555 2 138 32.4446 138 70H142C142 30.2355 109.765 -2 70 -2V2ZM2 70C2 32.4446 32.4446 2 70 2V-2C30.2355 -2 -2 30.2355 -2 70H2ZM70 138C32.4446 138 2 107.555 2 70H-2C-2 109.765 30.2355 142 70 142V138ZM106.17 127.593C95.695 134.186 83.2959 138 70 138V142C84.0717 142 97.2063 137.961 108.301 130.979L106.17 127.593ZM109.122 128.624C108.396 126.553 108 124.325 108 122H104C104 124.782 104.474 127.458 105.348 129.948L109.122 128.624ZM108 122C108 110.954 116.954 102 128 102V98C114.745 98 104 108.745 104 122H108ZM128 102C129.563 102 131.082 102.179 132.539 102.517L133.442 98.6202C131.692 98.2142 129.87 98 128 98V102Z" fill="#009875" mask="url(#path-6-inside-1_346_3013)"/>
</svg>
