<svg width="140" height="140" viewBox="0 0 140 140" fill="none" xmlns="http://www.w3.org/2000/svg">
<g clip-path="url(#clip0_346_3037)">
<path d="M68.9023 79.8557L62.8906 85.8674C62.3281 86.4299 62.0117 87.2033 62.0117 87.9885C62.0117 88.7737 62.3281 89.5588 62.8906 90.1096L68.9023 96.1213C70.0742 97.2932 71.9727 97.2932 73.1445 96.1213C74.3164 94.9494 74.3164 93.051 73.1445 91.8791L69.2656 88.0002L73.1445 84.1213C74.3164 82.9494 74.3164 81.051 73.1445 79.8791C71.9727 78.6838 70.0742 78.6838 68.9023 79.8557ZM65.0234 90.9885H92.0586H92.2109C97.0273 90.7424 100.754 86.7698 100.754 81.9885L100.742 81.5198C100.695 80.5119 100.473 79.5276 100.098 78.6018L99.9453 78.2854L98.293 75.2854C97.4961 73.8323 95.668 73.3049 94.2148 74.1018C92.7617 74.8987 92.2344 76.7268 93.0313 78.1799L94.6836 81.1799L97.3203 79.7385L94.5312 80.8635C94.6602 81.1799 94.7305 81.508 94.7539 81.8479V82.0119C94.7539 83.594 93.5117 84.9299 91.9062 85.0119L92.0586 88.0119V85.0119H65.0234C63.3594 85.0119 62.0234 86.3596 62.0234 88.0119C62.0117 89.6526 63.3594 90.9885 65.0234 90.9885Z" fill="#009875"/>
<path d="M63.5234 63.1796L61.3203 54.9765C60.8867 53.371 59.2461 52.4218 57.6406 52.8554L49.4375 55.0468C47.832 55.4804 46.8828 57.121 47.3164 58.7265C47.75 60.3319 49.3906 61.2812 50.9961 60.8476L56.3047 59.4296L57.7227 64.7382C58.1562 66.3437 59.7969 67.2929 61.4023 66.8593C63.0078 66.4257 63.957 64.7851 63.5234 63.1796ZM55.8242 54.2499L42.3008 77.664L42.2305 77.8046C41.5625 79.1054 41.2461 80.5116 41.2461 81.8944C41.2344 85.164 43.0391 88.328 46.1562 89.9218C47.0586 90.3788 48.0195 90.6835 49.0156 90.8241L49.3672 90.8476L52.7891 90.9179C54.4531 90.953 55.8242 89.6405 55.8594 87.9765C55.8945 86.3124 54.582 84.9413 52.918 84.9062L49.4961 84.8358L49.4375 87.8358L49.8477 84.8593C49.5078 84.8124 49.1914 84.7069 48.8984 84.5546C47.8555 84.0273 47.2578 82.9726 47.2578 81.871C47.2578 81.414 47.3633 80.9569 47.5859 80.5116L44.9141 79.1523L47.5156 80.6523L61.0273 57.2382C61.8594 55.7968 61.3672 53.9687 59.9258 53.1366C58.4844 52.3163 56.6562 52.8085 55.8242 54.2499Z" fill="#009875"/>
<path d="M80.6562 66.8594L88.8594 69.0625C90.4648 69.4961 92.1054 68.5352 92.539 66.9414L94.7422 58.7383C95.1758 57.1328 94.2148 55.4922 92.6211 55.0586C91.0156 54.625 89.375 55.5859 88.9414 57.1797L87.5234 62.4883L82.2148 61.0703C80.6094 60.6367 78.9687 61.5977 78.5351 63.1914C78.1015 64.7852 79.0508 66.4258 80.6562 66.8594ZM92.2461 64.6562L78.7226 41.2422L78.6406 41.1133C76.9179 38.4531 74.0117 37 71.0703 37C69.3945 37 67.6836 37.4688 66.1719 38.4531C65.3281 39.0039 64.5781 39.6836 63.957 40.4805L63.7578 40.7734L61.9883 43.7031C61.1328 45.1211 61.5781 46.9727 63.0078 47.8281C64.4258 48.6836 66.2773 48.2383 67.1328 46.8086L68.9023 43.8789L66.3359 42.3203L68.7031 44.1602C68.914 43.8906 69.1601 43.668 69.4414 43.4805C69.957 43.1523 70.5078 43 71.0703 43C72.0664 43 73.0156 43.4805 73.6015 44.3711L76.1211 42.7422L73.5195 44.2422L87.0312 67.6562C87.8633 69.0977 89.7031 69.5898 91.1328 68.7578C92.5742 67.9258 93.0664 66.0859 92.2461 64.6562Z" fill="#009875"/>
</g>
<mask id="path-4-inside-1_346_3037" fill="white">
<path fill-rule="evenodd" clip-rule="evenodd" d="M132.99 100.568C137.481 91.3322 140 80.9603 140 70C140 31.3401 108.66 0 70 0C31.3401 0 0 31.3401 0 70C0 108.66 31.3401 140 70 140C83.6838 140 96.4506 136.074 107.235 129.286C106.435 127.006 106 124.554 106 122C106 109.85 115.85 100 128 100C129.717 100 131.387 100.197 132.99 100.568Z"/>
</mask>
<path d="M132.99 100.568L132.539 102.517L134.092 102.877L134.789 101.443L132.99 100.568ZM107.235 129.286L108.301 130.979L109.65 130.129L109.122 128.624L107.235 129.286ZM138 70C138 80.6507 135.553 90.7243 131.192 99.694L134.789 101.443C139.409 91.9401 142 81.2698 142 70H138ZM70 2C107.555 2 138 32.4446 138 70H142C142 30.2355 109.765 -2 70 -2V2ZM2 70C2 32.4446 32.4446 2 70 2V-2C30.2355 -2 -2 30.2355 -2 70H2ZM70 138C32.4446 138 2 107.555 2 70H-2C-2 109.765 30.2355 142 70 142V138ZM106.17 127.593C95.695 134.186 83.2959 138 70 138V142C84.0717 142 97.2063 137.961 108.301 130.979L106.17 127.593ZM109.122 128.624C108.396 126.553 108 124.325 108 122H104C104 124.782 104.474 127.458 105.348 129.948L109.122 128.624ZM108 122C108 110.954 116.954 102 128 102V98C114.745 98 104 108.745 104 122H108ZM128 102C129.563 102 131.082 102.179 132.539 102.517L133.442 98.6202C131.692 98.2142 129.87 98 128 98V102Z" fill="#009875" mask="url(#path-4-inside-1_346_3037)"/>
<defs>
<clipPath id="clip0_346_3037">
<rect width="60" height="60" fill="white" transform="translate(41 37)"/>
</clipPath>
</defs>
</svg>
