<svg width="140" height="140" viewBox="0 0 140 140" fill="none" xmlns="http://www.w3.org/2000/svg">
<path d="M80 36.6665V69.9998C80 73.6665 77 76.6665 73.3333 76.6665H36.6666V49.9998C36.6666 42.6332 42.6333 36.6665 50 36.6665H80Z" stroke="#009875" stroke-width="1.5" stroke-linecap="round" stroke-linejoin="round"/>
<path d="M103.333 76.6665V86.6665C103.333 92.1998 98.8666 96.6665 93.3333 96.6665H90C90 92.9998 87 89.9998 83.3333 89.9998C79.6666 89.9998 76.6666 92.9998 76.6666 96.6665H63.3333C63.3333 92.9998 60.3333 89.9998 56.6666 89.9998C53 89.9998 50 92.9998 50 96.6665H46.6666C41.1333 96.6665 36.6666 92.1998 36.6666 86.6665V76.6665H73.3333C77 76.6665 80 73.6665 80 69.9998V46.6665H86.1333C88.5333 46.6665 90.7332 47.9665 91.9332 50.0332L97.6333 59.9998H93.3333C91.5 59.9998 90 61.4998 90 63.3332V73.3332C90 75.1665 91.5 76.6665 93.3333 76.6665H103.333Z" stroke="#009875" stroke-width="1.5" stroke-linecap="round" stroke-linejoin="round"/>
<path d="M56.6667 103.333C60.3486 103.333 63.3333 100.349 63.3333 96.6667C63.3333 92.9848 60.3486 90 56.6667 90C52.9848 90 50 92.9848 50 96.6667C50 100.349 52.9848 103.333 56.6667 103.333Z" stroke="#009875" stroke-width="1.5" stroke-linecap="round" stroke-linejoin="round"/>
<path d="M83.3333 103.333C87.0152 103.333 90 100.349 90 96.6667C90 92.9848 87.0152 90 83.3333 90C79.6514 90 76.6666 92.9848 76.6666 96.6667C76.6666 100.349 79.6514 103.333 83.3333 103.333Z" stroke="#009875" stroke-width="1.5" stroke-linecap="round" stroke-linejoin="round"/>
<path d="M103.333 70V76.6667H93.3333C91.5 76.6667 90 75.1667 90 73.3333V63.3333C90 61.5 91.5 60 93.3333 60H97.6334L103.333 70Z" stroke="#009875" stroke-width="1.5" stroke-linecap="round" stroke-linejoin="round"/>
<mask id="path-6-inside-1_346_3021" fill="white">
<path fill-rule="evenodd" clip-rule="evenodd" d="M132.99 100.568C137.481 91.3322 140 80.9603 140 70C140 31.3401 108.66 0 70 0C31.3401 0 0 31.3401 0 70C0 108.66 31.3401 140 70 140C83.6838 140 96.4506 136.074 107.235 129.286C106.435 127.006 106 124.554 106 122C106 109.85 115.85 100 128 100C129.717 100 131.387 100.197 132.99 100.568Z"/>
</mask>
<path d="M132.99 100.568L132.539 102.517L134.092 102.877L134.789 101.443L132.99 100.568ZM107.235 129.286L108.301 130.979L109.65 130.129L109.122 128.624L107.235 129.286ZM138 70C138 80.6507 135.553 90.7243 131.192 99.694L134.789 101.443C139.409 91.9401 142 81.2698 142 70H138ZM70 2C107.555 2 138 32.4446 138 70H142C142 30.2355 109.765 -2 70 -2V2ZM2 70C2 32.4446 32.4446 2 70 2V-2C30.2355 -2 -2 30.2355 -2 70H2ZM70 138C32.4446 138 2 107.555 2 70H-2C-2 109.765 30.2355 142 70 142V138ZM106.17 127.593C95.695 134.186 83.2959 138 70 138V142C84.0717 142 97.2063 137.961 108.301 130.979L106.17 127.593ZM109.122 128.624C108.396 126.553 108 124.325 108 122H104C104 124.782 104.474 127.458 105.348 129.948L109.122 128.624ZM108 122C108 110.954 116.954 102 128 102V98C114.745 98 104 108.745 104 122H108ZM128 102C129.563 102 131.082 102.179 132.539 102.517L133.442 98.6202C131.692 98.2142 129.87 98 128 98V102Z" fill="#009875" mask="url(#path-6-inside-1_346_3021)"/>
</svg>
