<svg width="140" height="140" viewBox="0 0 140 140" fill="none" xmlns="http://www.w3.org/2000/svg">
<path d="M103.333 80C103.333 92.9 92.9 103.333 80 103.333L83.5 97.5" stroke="#009875" stroke-width="1.5" stroke-linecap="round" stroke-linejoin="round"/>
<path d="M36.6666 59.9998C36.6666 47.0998 47.1 36.6665 60 36.6665L56.5 42.4998" stroke="#009875" stroke-width="1.5" stroke-linecap="round" stroke-linejoin="round"/>
<path d="M75.6666 44.833L88.9333 52.4996L102.067 44.8664" stroke="#009875" stroke-width="1.5" stroke-linecap="round" stroke-linejoin="round"/>
<path d="M88.9332 66.0664V52.4663" stroke="#009875" stroke-width="1.5" stroke-linecap="round" stroke-linejoin="round"/>
<path d="M85.8 37.3665L77.8 41.7997C76 42.7997 74.5 45.333 74.5 47.3997V55.8665C74.5 57.9331 75.9666 60.4664 77.8 61.4664L85.8 65.8998C87.5 66.8665 90.3 66.8665 92.0333 65.8998L100.033 61.4664C101.833 60.4664 103.333 57.9331 103.333 55.8665V47.3997C103.333 45.333 101.867 42.7997 100.033 41.7997L92.0333 37.3665C90.3333 36.4332 87.5333 36.4332 85.8 37.3665Z" stroke="#009875" stroke-width="1.5" stroke-linecap="round" stroke-linejoin="round"/>
<path d="M37.8334 81.5L51.0667 89.1666L64.2334 81.5334" stroke="#009875" stroke-width="1.5" stroke-linecap="round" stroke-linejoin="round"/>
<path d="M51.0667 102.733V89.1333" stroke="#009875" stroke-width="1.5" stroke-linecap="round" stroke-linejoin="round"/>
<path d="M47.9666 74.0335L39.9666 78.4667C38.1666 79.4667 36.6666 82 36.6666 84.0667V92.5335C36.6666 94.6001 38.1333 97.1334 39.9666 98.1334L47.9666 102.567C49.6666 103.533 52.4666 103.533 54.1999 102.567L62.2 98.1334C64 97.1334 65.4999 94.6001 65.4999 92.5335V84.0667C65.4999 82 64.0333 79.4667 62.2 78.4667L54.1999 74.0335C52.4666 73.1002 49.6666 73.1002 47.9666 74.0335Z" stroke="#009875" stroke-width="1.5" stroke-linecap="round" stroke-linejoin="round"/>
<mask id="path-9-inside-1_346_3029" fill="white">
<path fill-rule="evenodd" clip-rule="evenodd" d="M132.99 100.568C137.481 91.3322 140 80.9603 140 70C140 31.3401 108.66 0 70 0C31.3401 0 0 31.3401 0 70C0 108.66 31.3401 140 70 140C83.6838 140 96.4506 136.074 107.235 129.286C106.435 127.006 106 124.554 106 122C106 109.85 115.85 100 128 100C129.717 100 131.387 100.197 132.99 100.568Z"/>
</mask>
<path d="M132.99 100.568L132.539 102.517L134.092 102.877L134.789 101.443L132.99 100.568ZM107.235 129.286L108.301 130.979L109.65 130.129L109.122 128.624L107.235 129.286ZM138 70C138 80.6507 135.553 90.7243 131.192 99.694L134.789 101.443C139.409 91.9401 142 81.2698 142 70H138ZM70 2C107.555 2 138 32.4446 138 70H142C142 30.2355 109.765 -2 70 -2V2ZM2 70C2 32.4446 32.4446 2 70 2V-2C30.2355 -2 -2 30.2355 -2 70H2ZM70 138C32.4446 138 2 107.555 2 70H-2C-2 109.765 30.2355 142 70 142V138ZM106.17 127.593C95.695 134.186 83.2959 138 70 138V142C84.0717 142 97.2063 137.961 108.301 130.979L106.17 127.593ZM109.122 128.624C108.396 126.553 108 124.325 108 122H104C104 124.782 104.474 127.458 105.348 129.948L109.122 128.624ZM108 122C108 110.954 116.954 102 128 102V98C114.745 98 104 108.745 104 122H108ZM128 102C129.563 102 131.082 102.179 132.539 102.517L133.442 98.6202C131.692 98.2142 129.87 98 128 98V102Z" fill="#009875" mask="url(#path-9-inside-1_346_3029)"/>
</svg>
