<?xml version="1.0" encoding="utf-8"?>
<!-- Generator: Adobe Illustrator 26.1.0, SVG Export Plug-In . SVG Version: 6.00 Build 0)  -->
<svg version="1.2" baseProfile="tiny" id="Layer_1" xmlns="http://www.w3.org/2000/svg" xmlns:xlink="http://www.w3.org/1999/xlink"
	 x="0px" y="0px" viewBox="0 0 617.3 168.2" overflow="visible" xml:space="preserve">
<g>
	<path fill="#E51C3C" d="M263.6,0h-45.7L162,168.2h28.7l15.3-48.3h68.6l15.5,48.3h29.5L263.6,0z M214.1,94.7l21.2-67.2h9.7
		l21.4,67.2H214.1z"/>
	<polygon points="617.3,0 617.3,168.2 584.7,168.2 584.7,42.7 578.6,42.7 550.5,110.1 515.6,110.1 487.7,42.7 481.6,42.7
		481.6,168.2 449.1,168.2 449.1,42.7 443,42.7 414.9,110.1 380,110.1 352.1,42.7 346,42.7 346,168.2 319.6,168.2 263.6,0 367.1,0
		394.5,67.5 400.6,67.5 427.8,0 481.7,0 481.7,0 502.7,0 530.1,67.5 536.2,67.5 563.4,0 	"/>
	<polygon points="217.9,0 162,168.2 135.7,168.2 135.7,42.7 129.6,42.7 101.5,110.1 66.5,110.1 38.6,42.7 32.6,42.7 32.6,168.2
		0,168.2 0,0 53.7,0 81.1,67.5 87.1,67.5 114.3,0 	"/>
	<polygon points="206.1,120 190.7,168.2 290.2,168.2 274.7,120 	"/>
	<polygon points="235.3,27.6 214.1,94.7 266.4,94.7 245,27.6 	"/>
</g>
</svg>
