<svg width="13" height="15" viewBox="0 0 13 15" fill="none" xmlns="http://www.w3.org/2000/svg">
<g clip-path="url(#clip0_6_44)">
<path d="M1.03767 14.9606C0.985312 14.9086 0.982758 14.6426 1.03413 14.5916C1.06193 14.564 1.18279 14.5526 1.55813 14.5421C1.99863 14.5297 2.06433 14.522 2.235 14.4628C2.50109 14.3706 2.67273 14.2608 2.84391 14.0734C3.12886 13.7614 3.14551 13.6307 3.16252 11.5719L3.17562 9.98633H2.11386C1.18229 9.98633 1.04723 9.9815 1.01242 9.94694C0.95452 9.88947 0.95452 9.33115 1.01242 9.27368C1.04723 9.23912 1.18203 9.23429 2.11092 9.23429H3.16974V8.77053V8.30677H2.11092C1.18203 8.30677 1.04723 8.30193 1.01242 8.26737C0.95452 8.2099 0.95452 7.65159 1.01242 7.59412C1.04723 7.55956 1.18203 7.55472 2.11092 7.55472H3.16974L3.16926 5.07925C3.16867 2.04947 3.14639 1.56261 2.98927 1.14574C2.89467 0.894767 2.60152 0.662355 2.23538 0.548065C2.13189 0.51576 1.96269 0.500666 1.57152 0.488844C1.14468 0.475943 1.04208 0.465948 1.02265 0.435375C0.981967 0.371348 0.992766 0.0931828 1.03767 0.0486095C1.07332 0.0132191 1.39468 0.00924905 4.20061 0.009535C7.63511 0.00988503 7.81278 0.0159162 8.64064 0.160257C9.67225 0.340119 10.4586 0.674058 11.0866 1.19896C11.4258 1.48255 11.792 1.90033 11.9882 2.22775C12.2055 2.59035 12.276 2.7686 12.3982 3.26401C12.5794 3.99933 12.5375 4.85152 12.282 5.62448C12.2051 5.85721 11.9821 6.30832 11.8397 6.5194C11.1721 7.50869 10.0841 8.09438 8.58652 8.27066C8.35712 8.29766 7.92297 8.30639 6.79987 8.30655L5.31625 8.30677V8.77053V9.23429H8.54683C11.4501 9.23429 11.7814 9.23828 11.8171 9.27368C11.875 9.33115 11.875 9.88947 11.8171 9.94694C11.7814 9.98234 11.4501 9.98633 8.54683 9.98633H5.31625L5.31664 11.2711C5.31715 12.9522 5.35233 13.4597 5.49431 13.8343C5.56465 14.0199 5.8003 14.2615 6.0167 14.3699C6.29228 14.508 6.4007 14.5282 6.94021 14.5422C7.32898 14.5523 7.44852 14.5632 7.47684 14.5914C7.52848 14.6426 7.52614 14.9084 7.47358 14.9606C7.43793 14.996 7.11129 15 4.25562 15C1.39996 15 1.07332 14.996 1.03767 14.9606ZM7.63953 7.50624C8.17962 7.4084 8.6824 7.12552 9.11491 6.67613C9.53656 6.23802 9.79564 5.70838 9.89926 5.07263C9.95428 4.73506 9.95535 3.9954 9.90141 3.59396C9.71078 2.17526 8.93678 1.29536 7.64153 1.02489C7.34342 0.962644 6.81673 0.935231 6.45044 0.962902C6.12998 0.987111 5.51113 1.08756 5.38185 1.13635L5.31625 1.16111V4.36054V7.55998L6.39582 7.54798C7.06535 7.54053 7.53773 7.52468 7.63953 7.50624Z" fill="currentColor"/>
</g>
<defs>
<clipPath id="clip0_6_44">
<rect width="11.562" height="15" fill="white" transform="translate(0.968994)"/>
</clipPath>
</defs>
</svg>
