<svg width="20" height="20" viewBox="0 0 20 20" fill="none" xmlns="http://www.w3.org/2000/svg">
<path d="M18.4561 20C18.0351 20 17.614 19.8606 17.2632 19.5122L14.3158 16.5854C14.2456 16.5157 14.2456 16.5157 14.1754 16.5157C14.1053 16.5157 14.1053 16.5157 14.0351 16.5157C12.5614 17.4913 10.807 18.0488 9.05263 18.0488C4.07018 18.0488 0 14.007 0 8.98955C0 4.04181 4.07018 0 9.05263 0C14.0351 0 18.1053 4.04181 18.1053 8.98955C18.1053 10.7317 17.614 12.4739 16.5614 13.9373C16.4912 14.007 16.4912 14.1463 16.5614 14.216L19.5088 17.1429C19.7895 17.4216 20 17.8397 20 18.3275C20 18.7456 19.8596 19.1638 19.5088 19.5122C19.2982 19.7909 18.8772 20 18.4561 20ZM9.05263 2.36934C5.33333 2.36934 2.38597 5.36585 2.38597 8.98955C2.38597 12.6132 5.40351 15.6098 9.05263 15.6098C12.7719 15.6098 15.7193 12.6132 15.7193 8.98955C15.7193 5.36585 12.7719 2.36934 9.05263 2.36934Z" fill="currentColor"/>
</svg>
