 <svg width="12" height="13" viewBox="0 0 12 13" fill="none" xmlns="http://www.w3.org/2000/svg">
  <path
    d="M7.07863 0.191999C7.23863 0.191999 7.31863 0.271999 7.31863 0.431999V8.952L10.1026 6.144C10.1826 6.064 10.2466 6.024 10.2946 6.024C10.3746 6.024 10.4386 6.064 10.4866 6.144L11.7106 7.344C11.7746 7.392 11.8066 7.456 11.8066 7.536C11.8066 7.6 11.7746 7.664 11.7106 7.728L6.76663 12.648C6.59063 12.824 6.39863 12.912 6.19063 12.912C5.98263 12.912 5.79063 12.824 5.61463 12.648L0.670625 7.728C0.606625 7.632 0.574625 7.568 0.574625 7.536C0.574625 7.472 0.606625 7.408 0.670625 7.344L1.89463 6.144C1.97463 6.064 2.03863 6.024 2.08663 6.024C2.13463 6.024 2.19863 6.064 2.27863 6.144L5.06263 8.952V0.431999C5.06263 0.271999 5.14263 0.191999 5.30263 0.191999H7.07863Z"
    fill="white" />
</svg>
