<svg xmlns="http://www.w3.org/2000/svg" viewBox="0 0 40 40"><defs><style>.cls-1{fill:#26a8e8;}.cls-2{fill:#fff;}</style></defs><g id="Layer_2" data-name="Layer 2"><g id="Layer_1-2" data-name="Layer 1"><rect class="cls-1" width="40" height="40"/><path class="cls-2" d="M31.9,7.13a3.19,3.19,0,0,0-1,.25c-.29.11-1.37.58-3.07,1.31l-6.37,2.73L8.44,17a3,3,0,0,0-.85.46,2.17,2.17,0,0,0-.8,1.62,2.21,2.21,0,0,0,.6,1.46,3.1,3.1,0,0,0,1,.62l5.19,2.12c.23.7,1.48,4.5,1.76,5.43A3.91,3.91,0,0,0,16,30a1.56,1.56,0,0,0,.42.39l.21.11h0l.05,0,.09,0a2,2,0,0,0,.51.09,1.7,1.7,0,0,0,1.07-.37l0,0,3.41-2.95,4.14,3.92a2.18,2.18,0,0,0,1.8.82,2.3,2.3,0,0,0,1.64-.73A2.49,2.49,0,0,0,30,30.06h0l3.9-20v0a3,3,0,0,0,0-1.45,1.93,1.93,0,0,0-.85-1.16A2.08,2.08,0,0,0,31.9,7.13ZM31.69,9.5s0,0,0,.06h0s-3.77,19.33-3.91,20.06c0-.05,0,.06-.08.12l-.21-.1,0,0-5.65-5.34-4,3.45L19,23s7.43-7.69,7.88-8.14.44-.48.44-.6A.26.26,0,0,0,27,14a1.19,1.19,0,0,0-.53.25c-1.63,1-8.76,5.19-12,7.05L9.32,19.11h0l13-5.59,6.37-2.74Z"/></g></g></svg>